<?xml version="1.0" standalone="no"?><svg xmlns="http://www.w3.org/2000/svg" viewBox="0 0 1440 320"><path fill="#3e8de3" fill-opacity="1" d="M0,96L34.3,85.3C68.6,75,137,53,206,69.3C274.3,85,343,139,411,138.7C480,139,549,85,617,64C685.7,43,754,53,823,90.7C891.4,128,960,192,1029,192C1097.1,192,1166,128,1234,138.7C1302.9,149,1371,235,1406,277.3L1440,320L1440,320L1405.7,320C1371.4,320,1303,320,1234,320C1165.7,320,1097,320,1029,320C960,320,891,320,823,320C754.3,320,686,320,617,320C548.6,320,480,320,411,320C342.9,320,274,320,206,320C137.1,320,69,320,34,320L0,320Z"></path></svg>